<svg width="300" height="300" viewBox="0 0 300 300" fill="none" xmlns="http://www.w3.org/2000/svg">
<rect width="300" height="300" rx="10" fill="#F3F3F3"/>
<path d="M174.351 138.249L158.163 123.374C157.838 123.075 157.397 122.907 156.938 122.906H129.188C128.114 122.906 127.085 123.298 126.326 123.995C125.567 124.693 125.141 125.639 125.141 126.625V145.75C125.141 146.173 125.323 146.578 125.649 146.877C125.974 147.176 126.415 147.344 126.875 147.344C127.335 147.344 127.776 147.176 128.101 146.877C128.427 146.578 128.609 146.173 128.609 145.75V126.625C128.609 126.484 128.67 126.349 128.779 126.249C128.887 126.15 129.034 126.094 129.188 126.094H155.203V139.375C155.203 139.798 155.386 140.203 155.711 140.502C156.036 140.801 156.478 140.969 156.938 140.969H171.391V173.375C171.391 173.516 171.33 173.651 171.221 173.751C171.113 173.85 170.966 173.906 170.812 173.906H168.5C168.04 173.906 167.599 174.074 167.274 174.373C166.948 174.672 166.766 175.077 166.766 175.5C166.766 175.923 166.948 176.328 167.274 176.627C167.599 176.926 168.04 177.094 168.5 177.094H170.812C171.886 177.094 172.915 176.702 173.674 176.005C174.433 175.307 174.859 174.361 174.859 173.375V139.375C174.859 138.952 174.676 138.547 174.351 138.249ZM158.672 128.346L168.939 137.781H158.672V128.346ZM157.779 154.98C157.508 154.842 157.202 154.774 156.892 154.781C156.583 154.789 156.281 154.872 156.018 155.023L149.422 158.811V158.5C149.422 157.514 148.996 156.568 148.237 155.87C147.478 155.173 146.448 154.781 145.375 154.781H126.875C125.802 154.781 124.772 155.173 124.013 155.87C123.254 156.568 122.828 157.514 122.828 158.5V171.25C122.828 172.236 123.254 173.182 124.013 173.88C124.772 174.577 125.802 174.969 126.875 174.969H145.375C146.448 174.969 147.478 174.577 148.237 173.88C148.996 173.182 149.422 172.236 149.422 171.25V170.939L156.018 174.727C156.281 174.878 156.583 174.961 156.892 174.969C157.202 174.976 157.508 174.907 157.779 174.769C158.049 174.631 158.275 174.429 158.432 174.184C158.589 173.939 158.672 173.66 158.672 173.375V156.375C158.672 156.09 158.589 155.811 158.432 155.566C158.275 155.321 158.049 155.118 157.779 154.98ZM145.953 171.25C145.953 171.391 145.892 171.526 145.784 171.626C145.675 171.725 145.528 171.781 145.375 171.781H126.875C126.722 171.781 126.575 171.725 126.466 171.626C126.358 171.526 126.297 171.391 126.297 171.25V158.5C126.297 158.359 126.358 158.224 126.466 158.124C126.575 158.025 126.722 157.969 126.875 157.969H145.375C145.528 157.969 145.675 158.025 145.784 158.124C145.892 158.224 145.953 158.359 145.953 158.5V171.25ZM155.203 170.498L149.422 167.178V162.572L155.203 159.252V170.498Z" fill="#A19E9E"/>
</svg>
