<svg width="300" height="300" viewBox="0 0 300 300" fill="none" xmlns="http://www.w3.org/2000/svg">
<rect width="300" height="300" rx="10" fill="#F3F3F3"/>
<path d="M184.792 144.687V181.5C184.792 182.528 184.26 183.513 183.315 184.24C182.37 184.967 181.087 185.375 179.75 185.375H109.167C107.83 185.375 106.547 184.967 105.602 184.24C104.656 183.513 104.125 182.528 104.125 181.5V127.25C104.125 126.222 104.656 125.237 105.602 124.51C106.547 123.783 107.83 123.375 109.167 123.375H155.459" stroke="#A19E9E" stroke-width="2" stroke-miterlimit="10" stroke-linecap="round" stroke-linejoin="round"/>
<path d="M174.708 123.375H194.875M184.779 115.228V130.728M119.25 164.121L134.375 148.562L141.937 154.375L150.76 143.719L169.667 164.121H119.25Z" stroke="#A19E9E" stroke-width="2" stroke-miterlimit="10" stroke-linecap="round" stroke-linejoin="round"/>
</svg>
